<?xml version="1.0" encoding="utf-8"?>
<!-- Generator: Adobe Illustrator 18.0.0, SVG Export Plug-In . SVG Version: 6.00 Build 0)  -->
<!DOCTYPE svg PUBLIC "-//W3C//DTD SVG 1.1//EN" "http://www.w3.org/Graphics/SVG/1.1/DTD/svg11.dtd">
<svg version="1.1" id="Layer_1" xmlns="http://www.w3.org/2000/svg" xmlns:xlink="http://www.w3.org/1999/xlink" x="0px" y="0px"
	 viewBox="0 0 64 64" enable-background="new 0 0 64 64" xml:space="preserve">
<g id="XMLID_7_">
	<g>
		<g>
			<path fill="#FFB43B" d="M23.5,24c1.7,0,3,1.3,3,3s-1.3,3-3,3s-3-1.3-3-3S21.8,24,23.5,24z"/>
		</g>
		<g>
			<path fill="#FFB43B" d="M41.5,24c1.7,0,3,1.3,3,3s-1.3,3-3,3s-3-1.3-3-3S39.8,24,41.5,24z"/>
		</g>
		<g>
			<polygon fill="#FFB43B" points="51,10.8 54.5,15 47,15 47,6 			"/>
		</g>
		<g>
			<polygon fill="#FFB43B" points="13,10.8 17,6 17,15 9.5,15 			"/>
		</g>
		<g>
			<polygon fill="#FFB43B" points="47,6 47,15 17,15 17,6 13,1 51,1 			"/>
		</g>
		<g>
			<polygon fill="#FF5F5F" points="13,1 17,6 13,10.8 			"/>
		</g>
		<g>
			<path fill="#FF5F5F" d="M41.5,30c1.7,0,3-1.3,3-3s-1.3-3-3-3s-3,1.3-3,3S39.8,30,41.5,30z M23.5,30c1.7,0,3-1.3,3-3s-1.3-3-3-3
				s-3,1.3-3,3S21.8,30,23.5,30z M54.5,15L57,63H7l2.5-48H17h30H54.5z"/>
		</g>
		<g>
			<polygon fill="#FF5F5F" points="51,1 51,10.8 47,6 			"/>
		</g>
	</g>
	<g>
		<g>
			<path fill="#2C2C3D" d="M57,64C57,64,57,64,57,64H7c-0.3,0-0.5-0.1-0.7-0.3C6.1,63.5,6,63.2,6,62.9l2.5-48c0-0.5,0.5-0.9,1-0.9
				h45c0.5,0,1,0.4,1,0.9L58,62.7c0,0.1,0,0.2,0,0.3C58,63.6,57.6,64,57,64z M8.1,62h47.9l-2.4-46H10.4L8.1,62z"/>
		</g>
		<g>
			<path fill="#2C2C3D" d="M23.5,31c-2.2,0-4-1.8-4-4s1.8-4,4-4s4,1.8,4,4S25.7,31,23.5,31z M23.5,25c-1.1,0-2,0.9-2,2s0.9,2,2,2
				s2-0.9,2-2S24.6,25,23.5,25z"/>
		</g>
		<g>
			<path fill="#2C2C3D" d="M41.5,31c-2.2,0-4-1.8-4-4s1.8-4,4-4s4,1.8,4,4S43.7,31,41.5,31z M41.5,25c-1.1,0-2,0.9-2,2s0.9,2,2,2
				s2-0.9,2-2S42.6,25,41.5,25z"/>
		</g>
		<g>
			<path fill="#2C2C3D" d="M32.6,45c-5.5,0-9.9-4.5-9.9-9.9V30c0-0.6,0.4-1,1-1s1,0.4,1,1v5.1c0,4.4,3.6,7.9,7.9,7.9
				c2.1,0,4.1-0.8,5.6-2.3c1.5-1.5,2.3-3.5,2.3-5.6V30c0-0.6,0.4-1,1-1s1,0.4,1,1v5.1c0,2.6-1,5.1-2.9,7S35.2,45,32.6,45z"/>
		</g>
		<g>
			<path fill="#2C2C3D" d="M9.5,16c-0.2,0-0.5-0.1-0.6-0.2c-0.4-0.4-0.5-1-0.1-1.4l7.5-9c0.3-0.3,0.7-0.4,1.1-0.3
				C17.7,5.2,18,5.6,18,6v9c0,0.6-0.4,1-1,1s-1-0.4-1-1V8.8l-5.7,6.9C10.1,15.9,9.8,16,9.5,16z"/>
		</g>
		<g>
			<path fill="#2C2C3D" d="M54.5,16c-0.3,0-0.6-0.1-0.8-0.4L48,8.8V15c0,0.6-0.4,1-1,1s-1-0.4-1-1V6c0-0.4,0.3-0.8,0.7-0.9
				c0.4-0.1,0.8,0,1.1,0.3l7.5,9c0.4,0.4,0.3,1.1-0.1,1.4C55,15.9,54.7,16,54.5,16z"/>
		</g>
		<g>
			<path fill="#2C2C3D" d="M14,11h-2V1c0-0.4,0.3-0.8,0.7-0.9c0.4-0.1,0.8,0,1.1,0.3l4,5l-1.6,1.2L14,3.9V11z"/>
		</g>
		<g>
			<path fill="#2C2C3D" d="M52,11h-2V3.9l-2.2,2.8l-1.6-1.2l4-5c0.3-0.3,0.7-0.5,1.1-0.3C51.7,0.2,52,0.6,52,1V11z"/>
		</g>
		<g>
			<path fill="#2C2C3D" d="M51,2H13c-0.6,0-1-0.4-1-1s0.4-1,1-1h38c0.6,0,1,0.4,1,1S51.6,2,51,2z"/>
		</g>
	</g>
</g>
</svg>
