<?xml version="1.0" encoding="utf-8"?>
<!-- Generator: Adobe Illustrator 18.0.0, SVG Export Plug-In . SVG Version: 6.00 Build 0)  -->
<!DOCTYPE svg PUBLIC "-//W3C//DTD SVG 1.1//EN" "http://www.w3.org/Graphics/SVG/1.1/DTD/svg11.dtd">
<svg version="1.1" id="Layer_1" xmlns="http://www.w3.org/2000/svg" xmlns:xlink="http://www.w3.org/1999/xlink" x="0px" y="0px"
	 viewBox="0 0 64 64" enable-background="new 0 0 64 64" xml:space="preserve">
<g>
	<g>
		<g>
			<path fill="#80C4D6" d="M32,0c17.7,0,32,14.3,32,32S49.7,64,32,64S0,49.7,0,32S14.3,0,32,0z"/>
		</g>
	</g>
	<g>
		<g>
			<rect x="19" y="12" fill="#D66D27" width="26" height="20"/>
		</g>
	</g>
	<g>
		<g>
			<polygon fill="#FCDA4F" points="41,16 45,12 45,19 			"/>
		</g>
	</g>
	<g>
		<g>
			<polygon fill="#EFA841" points="41,27.6 47,27.6 47,20 41,16 			"/>
		</g>
	</g>
	<g>
		<g>
			<polygon fill="#FCDA4F" points="23,16 19,12 19,19 			"/>
		</g>
	</g>
	<g>
		<g>
			<polygon fill="#EFA841" points="23,27.6 17,27.6 17,20 23,16 			"/>
		</g>
	</g>
	<g>
		<g>
			<path fill="#FCDA4F" d="M47,20l2,32H15l2-32H47z"/>
		</g>
	</g>
	<g>
		<g>
			<g>
				<path fill="#FFFFFF" d="M32,35.5c-3.8,0-7-3.2-7.4-7.4l0.9-0.1c0.4,3.7,3.2,6.6,6.6,6.6s6.1-2.8,6.6-6.6l0.9,0.1
					C39,32.3,35.8,35.5,32,35.5z"/>
			</g>
		</g>
	</g>
	<g>
		<g>
			<circle fill="#EFA841" cx="24.5" cy="28" r="1.5"/>
		</g>
	</g>
	<g>
		<g>
			<circle fill="#EFA841" cx="39.5" cy="28" r="1.5"/>
		</g>
	</g>
</g>
</svg>
